<svg viewBox="0 0 60.0714 60.0715" xmlns="http://www.w3.org/2000/svg" xmlns:xlink="http://www.w3.org/1999/xlink" width="60.071411" height="60.071533" fill="none" customFrame="#000000">
	<path id="Vector" d="M41.179 32.1683C41.4524 31.8827 41.6668 31.5458 41.8097 31.1771C42.1101 30.4459 42.1101 29.6257 41.8097 28.8944C41.6668 28.5257 41.4524 28.1889 41.179 27.9032L32.1683 18.8925C31.6027 18.3269 30.8356 18.0092 30.0357 18.0092C29.2359 18.0092 28.4688 18.3269 27.9032 18.8925C27.3376 19.4581 27.0199 20.2252 27.0199 21.025C27.0199 21.8249 27.3376 22.592 27.9032 23.1576L31.8078 27.0322L21.025 27.0322C20.2284 27.0322 19.4644 27.3486 18.9012 27.9119C18.3379 28.4752 18.0214 29.2392 18.0214 30.0358C18.0214 30.8324 18.3379 31.5963 18.9012 32.1596C19.4644 32.7229 20.2284 33.0393 21.025 33.0393L31.8078 33.0393L27.9032 36.9139C27.6217 37.1932 27.3982 37.5254 27.2457 37.8914C27.0932 38.2574 27.0147 38.65 27.0147 39.0465C27.0147 39.443 27.0932 39.8356 27.2457 40.2016C27.3982 40.5676 27.6217 40.8998 27.9032 41.179C28.1824 41.4605 28.5146 41.684 28.8806 41.8365C29.2466 41.989 29.6392 42.0675 30.0357 42.0675C30.4322 42.0675 30.8248 41.989 31.1908 41.8365C31.5568 41.684 31.889 41.4605 32.1683 41.179L41.179 32.1683ZM60.0714 30.0358C60.0714 24.0953 58.3099 18.2881 55.0095 13.3488C51.7091 8.40944 47.0182 4.55968 41.5299 2.28635C36.0416 0.0130141 30.0024 -0.581794 24.176 0.577142C18.3497 1.73608 12.9978 4.59671 8.79727 8.79728C4.5967 12.9979 1.73608 18.3497 0.577141 24.1761C-0.581793 30.0024 0.0130141 36.0416 2.28635 41.5299C4.55968 47.0183 8.40943 51.7092 13.3488 55.0096C18.2881 58.3099 24.0952 60.0715 30.0357 60.0715C38.0017 60.0715 45.6414 56.907 51.2742 51.2742C56.907 45.6414 60.0714 38.0017 60.0714 30.0358ZM6.00716 30.0358C6.00716 25.2834 7.41641 20.6377 10.0567 16.6862C12.697 12.7347 16.4497 9.6549 20.8404 7.83623C25.231 6.01756 30.0624 5.54172 34.7235 6.46887C39.3846 7.39602 43.666 9.68452 47.0265 13.045C50.3869 16.4054 52.6754 20.6869 53.6026 25.348C54.5297 30.0091 54.0539 34.8405 52.2352 39.2311C50.4166 43.6218 47.3368 47.3745 43.3853 50.0148C39.4338 52.6551 34.7881 54.0644 30.0357 54.0644C23.663 54.0644 17.5512 51.5328 13.045 47.0266C8.53873 42.5203 6.00716 36.4085 6.00716 30.0358Z" fill="rgb(156.188,156.188,156.188)" fill-rule="nonzero" />
</svg>
